<svg width="265" height="264" xmlns="http://www.w3.org/2000/svg" xmlns:xlink="http://www.w3.org/1999/xlink" xml:space="preserve" overflow="hidden"><g transform="translate(275 44)"><path d="M116.428 257.606C107.972 254.152 100.908 251.161 100.753 250.955 100.392 250.645 105.548 237.342 106.167 236.981 106.322 236.878 110.395 238.373 115.191 240.333 119.986 242.292 124.008 243.891 124.059 243.891 124.162 243.891 124.266 219.708 124.266 190.162L124.214 136.383 90.3375 116.841C71.7234 106.064 56.2031 97.2984 55.8937 97.2984 55.5844 97.2984 50.325 100.186 44.1891 103.692L33.0516 110.086 33 128.287 33 146.438 25.2656 146.438 17.5312 146.438 17.6344 106.219 17.7891 65.9484 74.9203 32.9484 132 0 165.67 19.3875C184.13 30.1125 203.002 40.9922 207.539 43.5703 212.077 46.2 222.647 52.2844 231 57.1312L246.211 65.8969 246.314 138.548 246.469 211.148 213.572 226.359C195.525 234.712 177.117 243.169 172.734 245.231 139.27 260.803 132.258 264 132.052 263.948 131.897 263.948 124.833 261.061 116.428 257.606ZM185.883 222.08 230.742 201.3 230.845 155.667 231 110.086 221.1 104.414C215.686 101.32 211.045 98.6906 210.839 98.5875 210.581 98.4844 210.375 112.406 210.375 129.525L210.375 160.617 185.058 173.508C171.136 180.623 159.431 186.45 159.019 186.553 158.4 186.708 158.297 182.273 158.194 156.337L158.039 125.916 148.912 131.175 139.786 136.383 139.734 189.853C139.734 232.444 139.889 243.272 140.405 243.117 140.714 242.962 161.236 233.475 185.883 222.08ZM184.8 156.183 194.906 150.975 194.906 128.03C194.906 109.416 194.803 105.136 194.236 105.291 193.875 105.394 189.131 108.023 183.666 111.117L173.766 116.789 173.766 139.116C173.766 152.212 173.972 161.391 174.23 161.391 174.488 161.391 179.231 159.07 184.8 156.183ZM161.803 105.909C177.891 96.6281 191.348 88.7906 191.709 88.4297 192.225 87.9656 186.141 84.2531 162.164 70.4344L132 53.0062 101.836 70.4344C85.2328 80.025 71.8266 88.0172 72.0328 88.2234 72.2906 88.4297 83.5828 95.0297 97.1953 102.919 110.808 110.756 124.059 118.439 126.586 119.934 129.164 121.43 131.536 122.667 131.897 122.719 132.258 122.719 145.716 115.139 161.803 105.909ZM79.8187 65.2266 124.266 39.5484 124.266 31.0922C124.266 25.8328 124.059 22.6875 123.75 22.7906 123.492 22.8937 102.97 34.65 78.1172 48.9844L33 75.0234 33 83.7375 33 92.4 34.1859 91.6781C34.8047 91.2656 55.3266 79.3547 79.8187 65.2266ZM231 83.6859 231 75.0234 185.625 48.8812C160.72 34.4437 140.147 22.6875 139.992 22.6875 139.837 22.6875 139.734 26.5031 139.734 31.1437L139.734 39.5484 185.264 65.8969C210.272 80.3859 230.794 92.2453 230.897 92.2453 230.948 92.2969 231 88.4297 231 83.6859Z" fill="#FFC000" transform="matrix(1.00379 0 0 -1 -275 220)"/><path d="M73.3734 238.837C67.3922 236.363 62.3391 234.197 62.1844 234.042 61.9781 233.887 63.1641 230.587 64.7625 226.772L67.65 219.759 79.0453 224.4C85.3359 226.927 90.5953 229.144 90.6984 229.247 91.1109 229.659 85.3875 243.375 84.8203 243.323 84.5625 243.323 79.4062 241.312 73.3734 238.837Z" fill="#FFC000" transform="matrix(1.00379 0 0 -1 -275 220)"/><path d="M33.3094 222.234C27.1219 219.708 21.9656 217.542 21.8625 217.439 21.6562 217.233 26.7609 204.188 27.2766 203.569 27.5859 203.208 49.7062 211.922 50.4281 212.644 50.7375 212.953 45.2719 226.875 44.8594 226.875 44.7047 226.823 39.5484 224.761 33.3094 222.234Z" fill="#FFC000" transform="matrix(1.00379 0 0 -1 -275 220)"/><path d="M18.0469 176.602 18.0469 163.969 25.7812 163.969 33.5156 163.969 33.5156 176.602 33.5156 189.234 25.7812 189.234 18.0469 189.234 18.0469 176.602Z" fill="#FFC000" transform="matrix(1.00379 0 0 -1 -275 220)"/></g></svg>