<svg width="264" height="265" xmlns="http://www.w3.org/2000/svg" xmlns:xlink="http://www.w3.org/1999/xlink" xml:space="preserve" overflow="hidden"><g transform="translate(-383 -501)"><path d="M110.859 263.484C53.9859 259.978 12.0141 245.334 2.26875 225.586L0.257812 221.512 0.103125 167.269C0 115.603 0.0515625 112.922 0.928125 109.983 3.3 102.455 10.1578 95.5969 21.6562 89.3063 30.0609 84.7172 51.0984 77.3438 55.7906 77.3438 58.6781 77.3438 61.2047 78.7359 62.8031 81.1078L64.1953 83.2219 64.35 115.861 64.5047 148.5 65.6391 148.758C68.3203 149.377 81.1078 151.594 81.2625 151.491 81.3141 151.387 81.4688 147.262 81.5203 142.312L81.7266 133.289 79.0969 130.866C75.075 127.102 73.9922 124.523 73.9922 118.594 73.9922 114.314 74.1984 113.386 75.3844 111.066 76.9313 108.127 79.8703 105.239 83.1188 103.589 84.8203 102.661 86.4703 102.352 90.2859 102.197L95.2875 101.991 95.6484 99.0516C96.5766 91.3688 100.753 83.2734 106.683 77.6531L109.88 74.6625 109.725 70.4859 109.57 66.3094 86.2641 57.1828C73.425 52.1812 61.9266 47.4891 60.6375 46.7156 54.5016 43.1063 48.8812 35.9906 46.2516 28.4109 44.9109 24.5437 44.6531 23.0484 44.4469 16.8609 44.2922 12.0656 44.3953 9.02344 44.8594 7.47656 45.6844 4.5375 48.6234 1.44375 51.3563 0.61875 52.9547 0.154687 62.4422 0 88.8937 0L124.317 0 125.555 1.28906C126.277 1.95938 126.844 3.14531 126.844 3.86719 126.844 4.58906 126.277 5.775 125.555 6.44531L124.317 7.73438 102.352 7.73438 80.4375 7.73438 80.4375 14.6953C80.4375 20.9859 80.3344 21.7594 79.4062 22.6875 77.8594 24.2344 75.1266 24.0797 73.7859 22.3781 72.8063 21.1406 72.7031 20.3156 72.7031 14.3859L72.7031 7.73438 63.2672 7.73438C51.5625 7.73438 52.0781 7.37344 52.0781 14.85 52.0781 21.2953 52.6969 24.4922 54.9656 29.2359 57.0281 33.6187 61.6172 38.5172 65.4328 40.4766 67.5469 41.5078 96.6797 53.1094 97.2469 53.1094 97.2984 53.1094 97.9688 51.8203 98.6906 50.2219 103.125 40.5281 112.045 33.1547 122.564 30.3703 127.617 29.0297 136.486 28.9266 141.023 30.1641 151.387 32.8969 160.256 40.0641 164.845 49.3969 165.877 51.4594 166.959 53.0578 167.269 52.9031 167.578 52.8 174.178 50.2219 181.912 47.2313 189.647 44.2406 197.123 41.1469 198.567 40.4766 202.383 38.5172 206.972 33.6187 209.034 29.2359 211.303 24.4922 211.922 21.2953 211.922 14.7469 211.922 7.425 212.438 7.73438 200.681 7.73438L191.297 7.73438 191.297 14.3859C191.297 20.3156 191.194 21.1406 190.214 22.3781 188.873 24.0797 186.141 24.2344 184.594 22.6875 183.666 21.7594 183.562 20.9859 183.562 14.6953L183.562 7.73438 161.648 7.73438 139.683 7.73438 138.445 6.44531C136.795 4.84687 136.795 2.8875 138.445 1.28906L139.683 0 175.209 0C201.042 0 211.2 0.154687 212.489 0.61875 215.325 1.59844 217.027 3.14531 218.47 6.03281 219.759 8.71406 219.811 9.02344 219.553 16.3969 219.347 23.1 219.141 24.4922 217.748 28.4109 214.964 36.4547 208.931 43.8281 202.228 47.2828 200.63 48.1594 189.131 52.7484 176.756 57.5438L154.172 66.2578 154.172 70.3312 154.172 74.4047 158.245 78.6328C161.391 81.9328 162.834 83.9437 164.691 87.7078 166.856 92.0391 168.558 97.9172 168.609 100.856 168.609 101.887 168.919 101.991 173.662 102.197 177.994 102.352 179.025 102.609 181.397 103.898 186.863 106.889 189.802 111.478 190.162 117.614 190.472 123.338 189.389 126.225 185.419 130.247 183.305 132.361 181.5 133.65 179.953 134.166L177.633 134.939 177.478 143.498C177.375 151.748 177.375 152.109 178.355 152.109 179.541 152.109 197.278 149.17 198.619 148.758 199.444 148.448 199.495 146.541 199.65 115.809L199.805 83.2219 201.197 81.1078C202.795 78.7359 205.322 77.3438 208.209 77.3438 211.303 77.3438 227.184 82.1906 232.908 84.8719 235.177 85.9547 235.95 88.0687 234.919 90.1828 233.887 92.0906 231.98 92.7094 229.762 91.8328 224.967 89.925 211.045 85.5422 209.447 85.4391L207.539 85.3359 207.384 115.912C207.281 142.312 207.384 146.438 208.003 146.438 209.034 146.438 220.017 143.137 225.328 141.178 243.323 134.681 254.977 125.503 256.111 117.047 256.781 112.303 253.43 106.528 247.345 101.63 244.2 99.1547 243.891 98.7422 243.891 96.9891 243.891 94.5656 245.128 93.3281 247.5 93.3281 251.058 93.3281 258.844 100.856 261.886 107.25L263.742 111.117 263.742 166.341 263.742 221.512 261.731 225.586C252.398 244.458 214.397 258.483 160.617 262.969 151.594 263.742 120.141 264.052 110.859 263.484ZM162.938 254.977C198.928 251.677 227.339 244.045 243.891 233.32 257.245 224.709 259.669 214.861 250.697 205.889 243.633 198.773 230.742 192.483 213.159 187.43 199.805 183.614 199.598 183.305 199.547 166.134 199.547 160.669 199.341 156.286 199.134 156.441 198.567 156.75 184.748 159.122 180.675 159.586L177.53 159.947 176.653 163.041C175.106 168.558 169.331 173.198 163.969 173.25 160.927 173.25 160.514 173.611 159.586 176.653 157.884 182.48 153.759 186.502 148.448 187.636 146.85 187.997 137.878 188.203 125.4 188.203 102.816 188.203 101.527 188.048 95.8031 185.006 87.5531 180.623 82.7062 172.941 81.7266 162.834L81.4172 159.431 77.7047 158.812C75.6422 158.503 71.8266 157.833 69.2484 157.317L64.4531 156.389 64.4531 166.238C64.4016 183.305 64.1953 183.614 50.8406 187.43 37.6406 191.245 28.2047 195.216 20.3156 200.32 6.6 209.241 4.22813 218.728 13.4062 228.009 26.8125 241.467 62.7 252.141 104.672 255.234 117.202 256.163 117.769 256.163 136.383 255.956 146.953 255.853 157.936 255.441 162.938 254.977ZM17.2734 192.998C21.2953 190.472 29.7 186.45 35.0625 184.439 40.0125 182.583 50.4281 179.334 53.5219 178.664 56.7188 177.994 56.7188 177.891 56.7188 165.773L56.7188 154.739 54.5531 154.172C35.6812 149.428 19.6969 142.312 10.2094 134.423L7.73438 132.412 7.73438 166.238 7.73438 200.114 11.2406 197.33C13.1484 195.834 15.8812 193.875 17.2734 192.998ZM256.266 166.238 256.266 132.412 253.842 134.423C244.2 142.416 229.247 149.016 209.498 154.172L207.281 154.739 207.281 165.67C207.281 171.703 207.488 176.911 207.745 177.272 207.952 177.633 211.252 178.819 215.067 179.953 232.031 184.852 244.148 190.369 252.295 196.969 254.358 198.619 256.059 200.011 256.163 200.011 256.214 200.062 256.266 184.852 256.266 166.238ZM148.5 179.334C150.666 178.2 150.923 177.891 152.109 174.281 154.069 168.197 157.523 165.516 163.247 165.516 164.639 165.516 165.877 165.155 166.753 164.433 169.537 162.267 169.641 161.545 169.641 146.695 169.641 138.188 169.434 132.567 169.125 131.948 167.991 129.938 162.886 131.278 160.823 134.114 160.256 134.939 159.586 136.795 159.38 138.239 158.916 141.23 157.73 142.673 155.358 143.137 153.553 143.498 153.089 143.137 148.036 137.208 146.644 135.558 144.581 133.908 142.622 132.877L139.477 131.227 116.377 131.072C93.6891 130.917 93.2766 130.969 91.7812 132 90.9047 132.619 90.0281 133.856 89.7188 134.991 89.0484 137.466 89.0484 160.153 89.7188 164.433 90.6469 170.002 93.5344 174.539 97.9688 177.375 102.609 180.366 103.022 180.417 125.555 180.417 145.973 180.469 146.231 180.469 148.5 179.334ZM56.6156 115.912 56.4609 85.3359 54.5531 85.4391C51.3047 85.6453 35.6812 91.1109 28.6687 94.5656 14.3344 101.527 7.0125 109.364 7.88906 116.841 8.81719 125.142 19.4906 133.805 37.125 140.662 41.4047 142.312 54.6562 146.386 55.8422 146.438 56.6672 146.438 56.7188 144.736 56.6156 115.912ZM155.152 128.906C156.028 127.772 157.73 126.328 158.812 125.709L160.875 124.523 160.875 112.561C160.875 105.858 160.617 99.4125 160.308 97.8656 159.277 92.7609 156.441 87.7078 152.419 83.7891 148.087 79.5609 144.891 77.7047 139.425 76.3125 124.781 72.5484 110.395 79.9734 104.827 94.2047 103.486 97.6078 103.434 98.1234 103.228 110.498L103.022 123.234 120.502 123.234C134.527 123.234 138.548 123.389 141.023 124.008 144.633 124.987 148.345 126.895 150.975 129.216 152.006 130.144 153.037 130.917 153.192 130.969 153.347 130.969 154.223 130.041 155.152 128.906ZM178.458 126.173C179.386 125.555 180.727 124.214 181.397 123.234 182.428 121.688 182.583 120.914 182.428 118.284 182.067 112.561 178.819 109.828 172.27 109.828L168.609 109.828 168.609 116.428 168.609 122.977 170.878 123.905C172.116 124.42 173.662 125.4 174.281 126.07 175.777 127.669 176.241 127.669 178.458 126.173ZM88.8937 124.781C90.5437 123.905 92.7094 123.234 93.6375 123.234L95.3906 123.234 95.3906 116.48 95.3906 109.725 91.1109 109.88C87.2953 110.086 86.5734 110.241 84.8719 111.581 83.7891 112.406 82.6031 113.85 82.1906 114.778 81.3141 116.841 81.2625 120.811 82.0359 122.358 82.7062 123.595 85.1297 126.328 85.5422 126.328 85.6969 126.328 87.2438 125.606 88.8937 124.781ZM122.977 68.6813C128.803 67.0828 139.734 67.65 145.664 69.9187 146.283 70.1766 146.438 69.7125 146.438 67.0828 146.438 63.5766 147.262 61.4109 149.119 60.225 149.789 59.8125 152.264 58.6781 154.688 57.8016 157.111 56.8734 159.173 56.0484 159.225 55.9453 159.844 55.3781 155.048 47.7984 152.573 45.3234 147.108 39.8578 140.302 37.0219 132.567 36.9703 124.162 36.9188 117.047 39.7031 111.684 45.0141 109.003 47.7469 104.156 55.3266 104.775 55.9453 104.827 56.0484 106.734 56.8219 109.003 57.75 116.789 60.8438 117.562 61.6688 117.562 67.0828 117.562 70.125 117.614 70.2281 118.748 69.9187 119.367 69.7125 121.275 69.1969 122.977 68.6813Z" fill="#FFC000" transform="matrix(1 0 0 -1.00379 383 766)"/><path d="M190.781 240.848C186.966 239.611 183.614 236.62 182.222 233.269 181.294 231.052 181.294 225.792 182.222 223.575 183.202 221.152 185.986 218.212 188.409 216.923 190.008 216.098 191.452 215.841 194.133 215.841 196.814 215.841 198.258 216.098 199.856 216.923 202.28 218.212 205.064 221.152 206.044 223.575 206.972 225.792 206.972 231.052 206.044 233.269 205.012 235.692 202.28 238.631 199.908 239.869 197.639 241.003 192.844 241.519 190.781 240.848ZM196.453 232.805C197.278 232.392 198.206 231.567 198.516 231.052 199.444 229.247 199.134 226.514 197.794 224.967 196.762 223.781 196.144 223.523 194.133 223.523 192.122 223.523 191.503 223.781 190.472 224.967 188.306 227.494 188.925 231.258 191.709 232.753 193.514 233.733 194.597 233.784 196.453 232.805Z" fill="#FFC000" transform="matrix(1 0 0 -1.00379 383 766)"/><path d="M92.5547 239.302C88.0687 237.291 84.975 233.062 84.975 229.092 84.975 226.875 86.4703 225.328 88.5328 225.328 90.5437 225.328 91.575 226.153 92.5031 228.628 92.9672 229.866 93.9469 231.258 94.6172 231.722 98.3297 234.145 103.177 230.897 102.403 226.566 101.991 224.503 100.237 223.008 97.6078 222.492 94.9266 222.028 93.8438 220.894 93.8438 218.625 93.8438 216.356 94.9266 215.222 97.6078 214.758 101.63 213.984 103.589 210.633 101.887 207.384 100.856 205.425 99.6188 204.703 97.35 204.703 95.0812 204.755 93.5859 205.992 92.3484 208.931 91.2141 211.613 89.6156 212.438 87.2438 211.613 82.5516 209.962 85.6969 201.145 91.9875 198.206 103.692 192.741 115.242 206.095 108.023 216.769L106.786 218.625 108.023 220.481C111.323 225.328 110.963 231.258 107.147 235.847 103.847 239.869 97.1953 241.416 92.5547 239.302Z" fill="#FFC000" transform="matrix(1 0 0 -1.00379 383 766)"/><path d="M127.463 238.373C121.791 234.558 116.737 227.442 114.675 220.43 113.489 216.253 113.438 208.725 114.675 206.095 115.861 203.466 119.367 199.702 121.945 198.361 123.595 197.484 124.884 197.227 128.391 197.227 132.309 197.227 133.083 197.381 135.558 198.773 146.077 204.6 145.716 219.502 134.939 225.173 134.062 225.637 131.691 226.153 129.731 226.308L126.173 226.617 127.617 228.319C128.391 229.247 130.402 230.948 132 232.031 135.919 234.712 136.537 236.363 134.527 238.941 133.031 240.848 130.866 240.694 127.463 238.373ZM132.412 217.594C136.847 214.861 136.434 207.797 131.639 205.477 127.359 203.414 122.255 205.992 121.378 210.684 120.966 212.902 122.616 216.459 124.627 217.697 126.586 218.934 130.298 218.883 132.412 217.594Z" fill="#FFC000" transform="matrix(1 0 0 -1.00379 383 766)"/><path d="M154.172 238.631C151.645 237.342 150.408 236.259 149.17 234.403 146.592 230.639 146.334 228.886 146.541 217.387L146.695 207.023 148.242 204.239C152.78 196.041 164.123 194.494 170.517 201.197 173.92 204.755 174.281 206.302 174.281 218.625 174.281 229.144 174.23 229.814 173.044 232.289 170.827 237.033 166.65 239.817 161.133 240.178 157.833 240.384 157.266 240.23 154.172 238.631ZM163.453 231.773C166.392 230.227 166.547 229.659 166.547 218.625 166.547 207.591 166.392 207.023 163.453 205.477 160.875 204.136 158.503 204.497 156.337 206.456L154.43 208.209 154.43 218.625 154.43 229.041 156.337 230.794C158.503 232.753 160.875 233.114 163.453 231.773Z" fill="#FFC000" transform="matrix(1 0 0 -1.00379 383 766)"/></g></svg>